# xmcd
#
# Track frame offsets:
#	150
#	16846
#	30593
#	49104
#	68845
#	88909
#	107897
#	125519
#	141266
#	159303
#	177325
#	193470
#	209074
#	229894
#	249020
#
# Disc length: 3508 seconds
#
# Revision: 4
# Processed by: cddbd v1.5.2PL0 Copyright (c) Steve Scherf et al.
# Submitted via: audiograbber 1.83.01
#
DISCID=d60db20f
DTITLE=CHARTBUSTER - CB60347-Country Hits January 2006
DYEAR=1900
DGENRE=Country
TTITLE0=Chesney, Kenny - Living In Fast Forward
TTITLE1=Strait, George - High Tone Woman
TTITLE2=Rimes, LeAnn - Something's Gotta Give
TTITLE3=Akins, Rhett - Kiss My Country Ass
TTITLE4=Urban, Keith - Tonight I Wanna Cry
TTITLE5=McBride, Martina - Help Me Make It Through The Night
TTITLE6=Morgan, Craig - I Got You
TTITLE7=Aldean, Jason - Why
TTITLE8=Womack, Lee Ann - Twenty Years and Two Husbands Ago
TTITLE9=Bon Jovi - Jennifer Nettles - Who Says You Can't Go Home
TTITLE10=Rogers, Kenny - I Can't Unlove You
TTITLE11=Mesina, Jo Dee - Not Going Down
TTITLE12=Anderson, Keith - Every Time I Hear Your Name
TTITLE13=Lawrence, Tracy - If I Don't Make It Back
TTITLE14=O'Neal, Jamie - I Love My Life
EXTD=MediaType: Karaoke CD+G Producer: Unknown
EXTT0=
EXTT1=
EXTT2=
EXTT3=
EXTT4=
EXTT5=
EXTT6=
EXTT7=
EXTT8=
EXTT9=
EXTT10=
EXTT11=
EXTT12=
EXTT13=
EXTT14=
PLAYORDER=
